<svg width="20" height="20" viewBox="0 0 20 20" fill="none" xmlns="http://www.w3.org/2000/svg">
<path d="M0.819 13.081C0.567 13.081 0.387 12.997 0.279 12.829C0.171 12.661 0.174 12.454 0.288 12.208L2.592 7.159C2.688 6.955 2.802 6.808 2.934 6.718C3.066 6.622 3.219 6.574 3.393 6.574C3.567 6.574 3.72 6.622 3.852 6.718C3.984 6.808 4.095 6.955 4.185 7.159L6.507 12.208C6.621 12.46 6.624 12.67 6.516 12.838C6.414 13 6.246 13.081 6.012 13.081C5.808 13.081 5.649 13.033 5.535 12.937C5.427 12.841 5.331 12.691 5.247 12.487L4.869 11.623H1.908L1.539 12.487C1.449 12.697 1.353 12.85 1.251 12.946C1.149 13.036 1.005 13.081 0.819 13.081ZM3.375 8.14L2.376 10.534H4.41L3.393 8.14H3.375ZM8.14437 13C7.65837 13 7.41537 12.757 7.41537 12.271V7.384C7.41537 6.898 7.65837 6.655 8.14437 6.655H10.3224C11.0004 6.655 11.5224 6.802 11.8884 7.096C12.2604 7.39 12.4464 7.792 12.4464 8.302C12.4464 8.638 12.3624 8.929 12.1944 9.175C12.0264 9.415 11.7924 9.595 11.4924 9.715C11.8524 9.817 12.1284 9.997 12.3204 10.255C12.5184 10.513 12.6174 10.831 12.6174 11.209C12.6174 11.773 12.4194 12.214 12.0234 12.532C11.6334 12.844 11.0994 13 10.4214 13H8.14437ZM8.74737 9.265H10.0794C10.7634 9.265 11.1054 9.001 11.1054 8.473C11.1054 7.951 10.7634 7.69 10.0794 7.69H8.74737V9.265ZM8.74737 11.965H10.2324C10.5924 11.965 10.8564 11.896 11.0244 11.758C11.1924 11.62 11.2764 11.41 11.2764 11.128C11.2764 10.852 11.1924 10.645 11.0244 10.507C10.8564 10.369 10.5924 10.3 10.2324 10.3H8.74737V11.965ZM14.3212 13.081C13.8892 13.081 13.6732 12.856 13.6732 12.406V7.276C13.6732 7.048 13.7272 6.874 13.8352 6.754C13.9492 6.634 14.0992 6.574 14.2852 6.574C14.4412 6.574 14.5642 6.607 14.6542 6.673C14.7442 6.733 14.8462 6.835 14.9602 6.979L17.8762 10.696V7.24C17.8762 6.796 18.0922 6.574 18.5242 6.574C18.9562 6.574 19.1722 6.796 19.1722 7.24V12.433C19.1722 12.631 19.1212 12.79 19.0192 12.91C18.9172 13.024 18.7792 13.081 18.6052 13.081C18.4372 13.081 18.3022 13.048 18.2002 12.982C18.1042 12.916 17.9992 12.811 17.8852 12.667L14.9692 8.95V12.406C14.9692 12.856 14.7532 13.081 14.3212 13.081Z" fill="#646464"/>
</svg>
