<svg width="40" height="40" viewBox="0 0 40 40" fill="none" xmlns="http://www.w3.org/2000/svg">
<path d="M13.333 31.6663H4.99967C4.55765 31.6663 4.13372 31.4907 3.82116 31.1782C3.5086 30.8656 3.33301 30.4417 3.33301 29.9997V9.99967C3.33301 9.55765 3.5086 9.13372 3.82116 8.82116C4.13372 8.5086 4.55765 8.33301 4.99967 8.33301H16.0413L14.0963 11.6663H6.66634V28.333H13.333V31.6663ZM20.6247 31.6663L22.5697 28.333H29.9997V11.6663H23.333V8.33301H31.6663C32.1084 8.33301 32.5323 8.5086 32.8449 8.82116C33.1574 9.13372 33.333 9.55765 33.333 9.99967V29.9997C33.333 30.4417 33.1574 30.8656 32.8449 31.1782C32.5323 31.4907 32.1084 31.6663 31.6663 31.6663H20.6247ZM34.9997 14.9997H38.333V24.9997H34.9997V14.9997ZM19.9997 18.333H24.9997L16.6663 31.6663V21.6663H11.6663L19.9997 8.33301V18.333Z" fill="white"/>
</svg>
