<svg width="40" height="40" viewBox="0 0 40 40" fill="none" xmlns="http://www.w3.org/2000/svg">
<path d="M28.333 33.3333H11.6663V35C11.6663 35.442 11.4907 35.866 11.1782 36.1785C10.8656 36.4911 10.4417 36.6667 9.99967 36.6667H8.33301C7.89098 36.6667 7.46706 36.4911 7.1545 36.1785C6.84194 35.866 6.66634 35.442 6.66634 35V33.3333H4.99967V20H3.33301V13.3333H4.99967V8.33333C4.99967 7.44928 5.35086 6.60143 5.97599 5.97631C6.60111 5.35119 7.44895 5 8.33301 5H31.6663C32.5504 5 33.3982 5.35119 34.0234 5.97631C34.6485 6.60143 34.9997 7.44928 34.9997 8.33333V13.3333H36.6663V20H34.9997V33.3333H33.333V35C33.333 35.442 33.1574 35.866 32.8449 36.1785C32.5323 36.4911 32.1084 36.6667 31.6663 36.6667H29.9997C29.5576 36.6667 29.1337 36.4911 28.8212 36.1785C28.5086 35.866 28.333 35.442 28.333 35V33.3333ZM31.6663 20V8.33333H8.33301V20H31.6663ZM31.6663 23.3333H8.33301V30H31.6663V23.3333ZM9.99967 25H16.6663V28.3333H9.99967V25ZM23.333 25H29.9997V28.3333H23.333V25Z" fill="white"/>
</svg>
