<svg width="40" height="40" viewBox="0 0 40 40" fill="none" xmlns="http://www.w3.org/2000/svg">
<g id="ri:chat-settings-line">
<path id="Vector" d="M36.6663 20H33.333V8.33333H6.66634V30.6417L9.60467 28.3333H19.9997V31.6667H10.758L3.33301 37.5V6.66667C3.33301 6.22464 3.5086 5.80072 3.82116 5.48816C4.13372 5.17559 4.55765 5 4.99967 5H34.9997C35.4417 5 35.8656 5.17559 36.1782 5.48816C36.4907 5.80072 36.6663 6.22464 36.6663 6.66667V20ZM23.5747 31.785C23.2505 30.6171 23.2505 29.3829 23.5747 28.215L21.9497 27.2767L23.6163 24.39L25.243 25.3283C26.0917 24.4639 27.16 23.8474 28.333 23.545V21.6667H31.6663V23.5433C32.858 23.85 33.9197 24.4767 34.7563 25.33L36.383 24.39L38.0497 27.2767L36.4247 28.215C36.7489 29.3829 36.7489 30.6171 36.4247 31.785L38.0497 32.7233L36.383 35.61L34.7563 34.67C33.9079 35.5353 32.8396 36.153 31.6663 36.4567V38.3333H28.333V36.4567C27.1596 36.1534 26.0913 35.5356 25.243 34.67L23.6163 35.61L21.9497 32.7233L23.5747 31.785ZM29.9997 33.3333C30.8837 33.3333 31.7316 32.9821 32.3567 32.357C32.9818 31.7319 33.333 30.8841 33.333 30C33.333 29.1159 32.9818 28.2681 32.3567 27.643C31.7316 27.0179 30.8837 26.6667 29.9997 26.6667C29.1156 26.6667 28.2678 27.0179 27.6427 27.643C27.0175 28.2681 26.6663 29.1159 26.6663 30C26.6663 30.8841 27.0175 31.7319 27.6427 32.357C28.2678 32.9821 29.1156 33.3333 29.9997 33.3333Z" fill="white"/>
</g>
</svg>
