<svg width="21" height="20" viewBox="0 0 21 20" fill="none" xmlns="http://www.w3.org/2000/svg">
<g id="ri:download-cloud-fill">
<path id="Vector" d="M6.02658 17.4834C4.88829 17.396 3.80671 16.9512 2.93629 16.2125C2.06587 15.4737 1.45111 14.4789 1.17979 13.3699C0.908472 12.261 0.994467 11.0947 1.4255 10.0376C1.85653 8.9804 2.61055 8.08647 3.57991 7.4834C3.78617 5.87514 4.57141 4.39715 5.78868 3.32603C7.00594 2.25491 8.57181 1.66406 10.1932 1.66406C11.8147 1.66406 13.3805 2.25491 14.5978 3.32603C15.8151 4.39715 16.6003 5.87514 16.8066 7.4834C17.7759 8.08647 18.53 8.9804 18.961 10.0376C19.392 11.0947 19.478 12.261 19.2067 13.3699C18.9354 14.4789 18.3206 15.4737 17.4502 16.2125C16.5798 16.9512 15.4982 17.396 14.3599 17.4834V17.4992H6.02658V17.4834ZM11.0266 9.99923V6.6659H9.35991V9.99923H6.85991L10.1932 14.1659L13.5266 9.99923H11.0266Z" fill="#FA6400"/>
</g>
</svg>
