<svg width="40" height="40" viewBox="0 0 40 40" fill="none" xmlns="http://www.w3.org/2000/svg">
<g id="ri:eye-2-line">
<path id="Vector" d="M20.0002 3.33301C29.2052 3.33301 36.6668 10.7947 36.6668 19.9997C36.6668 29.2047 29.2052 36.6663 20.0002 36.6663C10.7952 36.6663 3.3335 29.2047 3.3335 19.9997C3.3335 10.7947 10.7952 3.33301 20.0002 3.33301ZM20.0002 6.66634C16.4639 6.66634 13.0726 8.0711 10.5721 10.5716C8.07159 13.0721 6.66683 16.4635 6.66683 19.9997C6.66683 23.5359 8.07159 26.9273 10.5721 29.4278C13.0726 31.9282 16.4639 33.333 20.0002 33.333C23.5364 33.333 26.9278 31.9282 29.4283 29.4278C31.9287 26.9273 33.3335 23.5359 33.3335 19.9997C33.3335 16.4635 31.9287 13.0721 29.4283 10.5716C26.9278 8.0711 23.5364 6.66634 20.0002 6.66634ZM20.0002 11.6663C21.7545 11.667 23.4638 12.2213 24.8847 13.2502C26.3056 14.2792 27.3655 15.7303 27.9134 17.3968C28.4614 19.0634 28.4694 20.8603 27.9363 22.5317C27.4033 24.2031 26.3564 25.6636 24.9448 26.7052C23.5331 27.7468 21.8288 28.3163 20.0746 28.3326C18.3203 28.349 16.6057 27.8113 15.1749 26.7961C13.7442 25.781 12.6702 24.3402 12.1062 22.6791C11.5421 21.0179 11.5167 19.2211 12.0335 17.5447C12.4234 18.4159 13.1006 19.1267 13.9519 19.5583C14.8032 19.9898 15.7769 20.1159 16.7101 19.9154C17.6432 19.7149 18.4792 19.2 19.0781 18.4569C19.677 17.7137 20.0025 16.7874 20.0002 15.833C20.0004 15.0305 19.7688 14.2449 19.3333 13.5708C18.8978 12.8967 18.2769 12.3627 17.5452 12.033C18.3407 11.7892 19.1681 11.6656 20.0002 11.6663Z" fill="white"/>
</g>
</svg>
