<svg width="32" height="32" viewBox="0 0 32 32" fill="none" xmlns="http://www.w3.org/2000/svg">
<path d="M15.9974 7.7002C11.4141 7.7002 7.66406 11.4419 7.66406 16.0502C7.66406 20.2169 10.7141 23.6752 14.6974 24.3002V18.4669H12.5807V16.0502H14.6974V14.2085C14.6974 12.1169 15.9391 10.9669 17.8474 10.9669C18.7557 10.9669 19.7057 11.1252 19.7057 11.1252V13.1835H18.6557C17.6224 13.1835 17.2974 13.8252 17.2974 14.4835V16.0502H19.6141L19.2391 18.4669H17.2974V24.3002C19.2611 23.9901 21.0492 22.9881 22.339 21.4752C23.6288 19.9624 24.3352 18.0382 24.3307 16.0502C24.3307 11.4419 20.5807 7.7002 15.9974 7.7002Z" fill="#161616"/>
<circle cx="16" cy="16" r="15.5" stroke="#646464"/>
</svg>
