<svg width="40" height="40" viewBox="0 0 40 40" fill="none" xmlns="http://www.w3.org/2000/svg">
<path d="M33.7384 7.92795C35.5439 9.73326 36.5906 12.1609 36.6637 14.7131C36.7368 17.2653 35.8309 19.7489 34.1317 21.6546L19.9984 35.808L5.86837 21.6546C4.16713 19.7479 3.26038 17.2622 3.33426 14.7079C3.40815 12.1536 4.45708 9.72454 6.26569 7.91933C8.07431 6.11413 10.5054 5.06979 13.0598 5.00073C15.6142 4.93166 18.0982 5.84311 20.0017 7.54795C21.906 5.84328 24.3909 4.93273 26.9457 5.00341C29.5005 5.07408 31.9312 6.12061 33.7384 7.92795ZM8.62004 10.2863C7.42713 11.4791 6.7308 13.0799 6.67142 14.7658C6.61204 16.4517 7.19402 18.0975 8.30004 19.3713L20 31.0896L31.7 19.3729C32.8062 18.0987 33.3879 16.4523 33.328 14.766C33.268 13.0797 32.5708 11.4788 31.377 10.2863C30.1832 9.09375 28.5816 8.39828 26.8952 8.34013C25.2089 8.28198 23.5631 8.86548 22.29 9.97295L15.2867 16.9779L12.9284 14.6213L17.6367 9.90962L17.5 9.79462C16.2187 8.76969 14.6044 8.25317 12.9661 8.34388C11.3278 8.43459 9.78041 9.12616 8.62004 10.2863Z" fill="white"/>
</svg>
