<svg width="40" height="40" viewBox="0 0 40 40" fill="none" xmlns="http://www.w3.org/2000/svg">
<path d="M4.99956 19.9997C4.99956 18.4526 5.61414 16.9688 6.7081 15.8749C7.80207 14.7809 9.2858 14.1663 10.8329 14.1663C12.8396 14.1663 14.1996 14.8897 15.3329 16.0213C16.5429 17.233 17.4746 18.888 18.5429 20.8097L18.5996 20.9097C19.5996 22.713 20.7379 24.7613 22.3112 26.3347C23.9912 28.0147 26.1712 29.1663 29.1662 29.1663C30.7016 29.1664 32.2123 28.7808 33.5598 28.0449C34.9073 27.3091 36.0484 26.2466 36.8784 24.9549C37.7083 23.6632 38.2005 22.1838 38.3098 20.6523C38.4192 19.1209 38.1421 17.5865 37.504 16.1901C36.8659 14.7936 35.8873 13.5798 34.658 12.66C33.4286 11.7402 31.988 11.1439 30.4682 10.9259C28.9484 10.7079 27.3982 10.8751 25.9599 11.4121C24.5216 11.9492 23.2412 12.8389 22.2362 13.9997C22.9067 15.0021 23.5307 16.0349 24.1062 17.0947C24.6164 16.2063 25.3516 15.4679 26.2377 14.9539C27.1239 14.4398 28.1298 14.1682 29.1543 14.1664C30.1788 14.1645 31.1857 14.4325 32.0737 14.9434C32.9617 15.4543 33.6995 16.19 34.2128 17.0765C34.7262 17.9631 34.997 18.9692 34.9981 19.9937C34.9991 21.0182 34.7304 22.0249 34.2188 22.9125C33.7072 23.8001 32.971 24.5373 32.084 25.05C31.197 25.5627 30.1907 25.8328 29.1662 25.833C27.1612 25.833 25.7996 25.1097 24.6662 23.978C23.4562 22.7663 22.5246 21.1113 21.4562 19.1897L21.3996 19.0897C20.3996 17.2863 19.2612 15.238 17.6879 13.6647C16.0079 11.9847 13.8279 10.833 10.8329 10.833C9.29756 10.833 7.78681 11.2186 6.43931 11.9544C5.0918 12.6903 3.95071 13.7528 3.12076 15.0445C2.29081 16.3362 1.79859 17.8156 1.68928 19.347C1.57997 20.8785 1.85707 22.4128 2.49514 23.8093C3.13322 25.2058 4.11183 26.4196 5.34116 27.3394C6.57048 28.2591 8.01115 28.8554 9.53092 29.0734C11.0507 29.2915 12.6009 29.1243 14.0392 28.5872C15.4776 28.0502 16.7579 27.1604 17.7629 25.9997C17.0924 24.9973 16.4684 23.9645 15.8929 22.9047C15.2532 24.02 14.2629 24.8926 13.076 25.3871C11.8891 25.8815 10.5721 25.9699 9.32981 25.6386C8.08748 25.3073 6.98942 24.5748 6.20633 23.5551C5.42324 22.5353 4.999 21.2854 4.99956 19.9997Z" fill="white"/>
</svg>
