<svg width="32" height="32" viewBox="0 0 32 32" fill="none" xmlns="http://www.w3.org/2000/svg">
<path d="M12.4974 7.66602H19.4974C22.1641 7.66602 24.3307 9.83268 24.3307 12.4993V19.4993C24.3307 20.7812 23.8215 22.0106 22.9151 22.917C22.0087 23.8235 20.7793 24.3327 19.4974 24.3327H12.4974C9.83073 24.3327 7.66406 22.166 7.66406 19.4993V12.4993C7.66406 11.2175 8.17329 9.98809 9.07971 9.08167C9.98614 8.17524 11.2155 7.66602 12.4974 7.66602ZM12.3307 9.33268C11.5351 9.33268 10.772 9.64875 10.2094 10.2114C9.6468 10.774 9.33073 11.537 9.33073 12.3327V19.666C9.33073 21.3243 10.6724 22.666 12.3307 22.666H19.6641C20.4597 22.666 21.2228 22.3499 21.7854 21.7873C22.348 21.2247 22.6641 20.4617 22.6641 19.666V12.3327C22.6641 10.6743 21.3224 9.33268 19.6641 9.33268H12.3307ZM20.3724 10.5827C20.6487 10.5827 20.9136 10.6924 21.109 10.8878C21.3043 11.0831 21.4141 11.3481 21.4141 11.6243C21.4141 11.9006 21.3043 12.1656 21.109 12.3609C20.9136 12.5563 20.6487 12.666 20.3724 12.666C20.0961 12.666 19.8312 12.5563 19.6358 12.3609C19.4405 12.1656 19.3307 11.9006 19.3307 11.6243C19.3307 11.3481 19.4405 11.0831 19.6358 10.8878C19.8312 10.6924 20.0961 10.5827 20.3724 10.5827ZM15.9974 11.8327C17.1025 11.8327 18.1623 12.2717 18.9437 13.0531C19.7251 13.8345 20.1641 14.8943 20.1641 15.9993C20.1641 17.1044 19.7251 18.1642 18.9437 18.9456C18.1623 19.727 17.1025 20.166 15.9974 20.166C14.8923 20.166 13.8325 19.727 13.0511 18.9456C12.2697 18.1642 11.8307 17.1044 11.8307 15.9993C11.8307 14.8943 12.2697 13.8345 13.0511 13.0531C13.8325 12.2717 14.8923 11.8327 15.9974 11.8327ZM15.9974 13.4993C15.3344 13.4993 14.6985 13.7627 14.2296 14.2316C13.7608 14.7004 13.4974 15.3363 13.4974 15.9993C13.4974 16.6624 13.7608 17.2983 14.2296 17.7671C14.6985 18.236 15.3344 18.4993 15.9974 18.4993C16.6604 18.4993 17.2963 18.236 17.7652 17.7671C18.234 17.2983 18.4974 16.6624 18.4974 15.9993C18.4974 15.3363 18.234 14.7004 17.7652 14.2316C17.2963 13.7627 16.6604 13.4993 15.9974 13.4993Z" fill="#161616"/>
<circle cx="16" cy="16" r="15.5" stroke="#646464"/>
</svg>
