<svg width="40" height="40" viewBox="0 0 40 40" fill="none" xmlns="http://www.w3.org/2000/svg">
<g id="ri:leaf-line">
<path id="Vector" d="M34.9966 5V8.33333C34.9966 24.3783 26.0416 31.6667 14.9966 31.6667H8.73492C8.45356 33.3182 8.31804 34.9913 8.32992 36.6667H4.99658C4.99658 34.395 5.18992 32.3333 5.57325 30.4467C5.18992 28.29 4.99658 25.3633 4.99658 21.6667C4.99658 12.4617 12.4582 5 21.6632 5C24.9966 5 28.3299 6.66667 34.9966 5ZM21.6632 8.33333C18.127 8.33333 14.7356 9.73809 12.2352 12.2386C9.73467 14.7391 8.32992 18.1304 8.32992 21.6667C8.32992 22.27 8.33492 22.8517 8.34658 23.41C10.4366 20.1133 13.4982 17.5083 17.5032 15.22L19.1566 18.1133C14.3999 20.8333 11.2432 23.9233 9.62325 28.3333H14.9966C25.0216 28.3333 31.4482 21.7117 31.6582 8.98C29.3716 9.20167 27.2466 9.06 24.6249 8.66667C22.7082 8.37833 22.3316 8.33333 21.6632 8.33333Z" fill="white"/>
</g>
</svg>
