<svg width="40" height="40" viewBox="0 0 40 40" fill="none" xmlns="http://www.w3.org/2000/svg">
<path d="M16.6214 30H23.378C23.598 27.9966 24.6197 26.345 26.278 24.5383C26.4664 24.335 27.6647 23.0933 27.8064 22.9166C28.9835 21.446 29.7213 19.6728 29.9349 17.8012C30.1484 15.9297 29.829 14.0359 29.0134 12.3379C28.1978 10.6399 26.9192 9.20676 25.3249 8.20359C23.7305 7.20041 21.8852 6.66797 20.0015 6.66756C18.1178 6.66716 16.2723 7.19882 14.6775 8.20131C13.0827 9.20381 11.8034 10.6364 10.9871 12.334C10.1708 14.0317 9.85059 15.9253 10.0633 17.797C10.2761 19.6687 11.0132 21.4422 12.1897 22.9133C12.333 23.0916 13.5347 24.335 13.7197 24.5366C15.3797 26.3433 16.4014 27.9966 16.6214 30ZM23.333 33.3333H16.6664V35H23.333V33.3333ZM9.58969 25C8.02001 23.0388 7.03627 20.6741 6.7518 18.1782C6.46732 15.6824 6.89369 13.157 7.98178 10.8929C9.06987 8.62876 10.7754 6.71808 12.9019 5.38093C15.0285 4.04378 17.4895 3.33456 20.0015 3.33496C22.5135 3.33536 24.9743 4.04537 27.1004 5.3832C29.2265 6.72103 30.9314 8.63226 32.0188 10.8967C33.1061 13.1612 33.5317 15.6867 33.2464 18.1825C32.9612 20.6782 31.9767 23.0426 30.4064 25.0033C29.373 26.29 26.6664 28.3333 26.6664 30.8333V35C26.6664 35.884 26.3152 36.7319 25.69 37.357C25.0649 37.9821 24.2171 38.3333 23.333 38.3333H16.6664C15.7823 38.3333 14.9345 37.9821 14.3093 37.357C13.6842 36.7319 13.333 35.884 13.333 35V30.8333C13.333 28.3333 10.6247 26.29 9.58969 25ZM21.6664 16.6733H25.833L18.333 26.6733V20.0066H14.1664L21.6664 9.99996V16.6733Z" fill="white"/>
</svg>
