<svg width="40" height="40" viewBox="0 0 40 40" fill="none" xmlns="http://www.w3.org/2000/svg">
<path d="M28.3337 25.408V36.8613C28.3337 37.0087 28.2946 37.1536 28.2204 37.281C28.1462 37.4084 28.0395 37.5138 27.9112 37.5865C27.7829 37.6592 27.6376 37.6965 27.4902 37.6947C27.3428 37.693 27.1985 37.6521 27.072 37.5763L20.0003 33.333L12.9287 37.5763C12.8021 37.6522 12.6576 37.693 12.51 37.6948C12.3624 37.6965 12.2171 37.659 12.0887 37.5861C11.9604 37.5132 11.8537 37.4075 11.7796 37.2799C11.7055 37.1522 11.6667 37.0072 11.667 36.8596V25.4096C9.51057 23.6831 7.94365 21.3294 7.18276 18.6739C6.42187 16.0183 6.50459 13.1919 7.41948 10.5854C8.33437 7.97889 10.0363 5.72088 12.29 4.12343C14.5437 2.52598 17.2379 1.66797 20.0003 1.66797C22.7628 1.66797 25.457 2.52598 27.7107 4.12343C29.9644 5.72088 31.6663 7.97889 32.5812 10.5854C33.4961 13.1919 33.5788 16.0183 32.8179 18.6739C32.057 21.3294 30.4901 23.6831 28.3337 25.4096M15.0003 27.3663V32.448L20.0003 29.448L25.0003 32.448V27.3646C23.4116 28.0066 21.7138 28.3354 20.0003 28.333C18.2868 28.3354 16.589 28.0082 15.0003 27.3663ZM20.0003 24.9996C22.6525 24.9996 25.196 23.9461 27.0714 22.0707C28.9468 20.1953 30.0003 17.6518 30.0003 14.9996C30.0003 12.3475 28.9468 9.80393 27.0714 7.92856C25.196 6.0532 22.6525 4.99963 20.0003 4.99963C17.3482 4.99963 14.8046 6.0532 12.9293 7.92856C11.0539 9.80393 10.0003 12.3475 10.0003 14.9996C10.0003 17.6518 11.0539 20.1953 12.9293 22.0707C14.8046 23.9461 17.3482 24.9996 20.0003 24.9996Z" fill="white"/>
</svg>
