<svg width="40" height="40" viewBox="0 0 40 40" fill="none" xmlns="http://www.w3.org/2000/svg">
<g id="ri:menu-search-line">
<path id="Vector" d="M25.8333 8.33403C24.2862 8.33403 22.8025 8.94861 21.7085 10.0426C20.6146 11.1365 20 12.6203 20 14.1674C20 15.7145 20.6146 17.1982 21.7085 18.2921C22.8025 19.3861 24.2862 20.0007 25.8333 20.0007C27.3804 20.0007 28.8642 19.3861 29.9581 18.2921C31.0521 17.1982 31.6667 15.7145 31.6667 14.1674C31.6667 12.6203 31.0521 11.1365 29.9581 10.0426C28.8642 8.94861 27.3804 8.33403 25.8333 8.33403ZM16.6667 14.1674C16.6669 12.7309 17.0047 11.3145 17.6528 10.0326C18.301 8.75063 19.2413 7.63894 20.3981 6.78719C21.5548 5.93544 22.8955 5.36746 24.3121 5.12907C25.7286 4.89067 27.1814 4.98853 28.5532 5.41476C29.925 5.84099 31.1774 6.58365 32.2095 7.58284C33.2415 8.58203 34.0243 9.80979 34.4947 11.1671C34.965 12.5244 35.1098 13.9732 34.9174 15.3968C34.7249 16.8203 34.2006 18.1787 33.3867 19.3624L37.845 23.8224L35.4883 26.179L31.03 21.7207C29.6536 22.6679 28.0445 23.2209 26.3767 23.3199C24.7088 23.419 23.0456 23.0603 21.5668 22.2826C20.088 21.5049 18.8499 20.3379 17.9862 18.9076C17.1226 17.4773 16.6663 15.8382 16.6667 14.1674ZM5 6.66736H13.3333V10.0007H5V6.66736ZM5 18.334H13.3333V21.6674H5V18.334ZM35 30.0007V33.334H5V30.0007H35Z" fill="white"/>
</g>
</svg>
