<svg width="40" height="40" viewBox="0 0 40 40" fill="none" xmlns="http://www.w3.org/2000/svg">
<path d="M9.99674 3.33301C12.1231 3.33224 14.2092 3.91269 16.0295 5.0116C17.8499 6.11051 19.3353 7.68609 20.3251 9.56801C21.3253 8.1549 22.65 7.00248 24.1879 6.20754C25.7259 5.41261 27.4322 4.99839 29.1634 4.99968H34.9967V9.16634C34.9967 12.0395 33.8554 14.795 31.8237 16.8267C29.7921 18.8583 27.0366 19.9997 24.1634 19.9997H21.6634V21.6663H29.9967V33.333C29.9967 34.2171 29.6456 35.0649 29.0204 35.69C28.3953 36.3152 27.5475 36.6663 26.6634 36.6663H13.3301C12.446 36.6663 11.5982 36.3152 10.9731 35.69C10.3479 35.0649 9.99674 34.2171 9.99674 33.333V21.6663H18.3301V18.333H14.9967C11.9026 18.333 8.93509 17.1038 6.74717 14.9159C4.55924 12.728 3.33008 9.76053 3.33008 6.66634V3.33301H9.99674ZM26.6634 24.9997H13.3301V33.333H26.6634V24.9997ZM31.6634 8.33301H29.1634C27.1743 8.33301 25.2666 9.12318 23.8601 10.5297C22.4536 11.9362 21.6634 13.8439 21.6634 15.833V16.6663H24.1634C25.1483 16.6663 26.1236 16.4723 27.0335 16.0954C27.9435 15.7185 28.7703 15.1661 29.4667 14.4696C30.1632 13.7732 30.7156 12.9464 31.0925 12.0365C31.4694 11.1265 31.6634 10.1513 31.6634 9.16634V8.33301ZM9.99674 6.66634H6.66341C6.66341 8.87648 7.54139 10.9961 9.10419 12.5589C10.667 14.1217 12.7866 14.9997 14.9967 14.9997H18.3301C18.3301 12.7895 17.4521 10.6699 15.8893 9.10712C14.3265 7.54432 12.2069 6.66634 9.99674 6.66634Z" fill="white"/>
</svg>
