<svg width="40" height="40" viewBox="0 0 40 40" fill="none" xmlns="http://www.w3.org/2000/svg">
<g id="ri:shake-hands-line">
<path id="Vector" d="M19.7685 3.98372C20.5749 3.44632 21.5202 3.15486 22.4892 3.1448C23.4583 3.13474 24.4094 3.40651 25.2268 3.92705L32.1502 8.33372H35.0002C35.4422 8.33372 35.8661 8.50931 36.1787 8.82187C36.4912 9.13443 36.6668 9.55836 36.6668 10.0004V25.0004C36.6668 25.4424 36.4912 25.8663 36.1787 26.1789C35.8661 26.4915 35.4422 26.6671 35.0002 26.6671H32.4668C32.5203 27.4786 32.3486 28.2892 31.9707 29.0094C31.5928 29.7297 31.0234 30.3315 30.3252 30.7487L21.8368 35.8421C21.3153 36.1547 20.7181 36.3188 20.11 36.3164C19.5019 36.3141 18.906 36.1454 18.3868 35.8287C17.8021 36.3454 17.0547 36.6405 16.2747 36.6627C15.4947 36.685 14.7317 36.4329 14.1185 35.9504L5.55183 29.2187C4.95326 28.7487 4.53347 28.088 4.36218 27.3464C4.19089 26.6049 4.27839 25.827 4.61016 25.1421C4.21218 24.83 3.8904 24.4315 3.66922 23.9767C3.44803 23.5219 3.33323 23.0228 3.3335 22.5171V10.0004C3.3335 9.55836 3.50909 9.13443 3.82165 8.82187C4.13421 8.50931 4.55814 8.33372 5.00016 8.33372H13.2452L19.7685 3.98372ZM6.95516 22.7437L8.1085 21.7354C9.09413 20.8732 10.3787 20.4321 11.6861 20.5069C12.9934 20.5817 14.2193 21.1664 15.1002 22.1354L19.6035 27.0887C20.3097 27.8655 20.7535 28.8449 20.8719 29.888C20.9904 30.9311 20.7775 31.985 20.2635 32.9004L28.6102 27.8921C28.8288 27.761 28.9949 27.5578 29.0798 27.3175C29.1647 27.0771 29.163 26.8147 29.0752 26.5754L21.6968 16.2454C21.4948 15.9623 21.2092 15.7495 20.8801 15.6368C20.5511 15.5241 20.195 15.5172 19.8618 15.6171L15.7185 16.8587C14.8538 17.1181 13.9351 17.1385 13.0598 16.9178C12.1845 16.6972 11.3852 16.2436 10.7468 15.6054L10.2585 15.1187C9.81508 14.6762 9.50555 14.1175 9.3655 13.5069C9.22546 12.8963 9.26058 12.2586 9.46683 11.6671H6.66683V22.5171L6.95516 22.7437ZM23.4385 6.74038C23.1657 6.56657 22.8482 6.47591 22.5247 6.47946C22.2012 6.48301 21.8858 6.58062 21.6168 6.76038L12.6168 12.7604L13.1035 13.2487C13.3165 13.4615 13.5832 13.6126 13.8752 13.6859C14.1671 13.7593 14.4736 13.7522 14.7618 13.6654L18.9035 12.4237C19.9029 12.124 20.971 12.1445 21.9581 12.4822C22.9453 12.8199 23.8021 13.458 24.4085 14.3071L30.8585 23.3337H33.3335V11.6671H32.1518C31.5177 11.667 30.8967 11.486 30.3618 11.1454L23.4368 6.73872L23.4385 6.74038ZM10.3018 24.2421L7.6085 26.5987L16.1752 33.3304L17.3502 31.2771C17.5248 30.9712 17.598 30.618 17.5594 30.2679C17.5207 29.9179 17.3722 29.5891 17.1352 29.3287L12.6335 24.3754C12.3399 24.0526 11.9314 23.8578 11.4957 23.8328C11.0601 23.8079 10.6303 23.9548 10.3018 24.2421Z" fill="white"/>
</g>
</svg>
