<svg width="143" height="32" viewBox="0 0 143 32" fill="none" xmlns="http://www.w3.org/2000/svg">
<g clip-path="url(#clip0_243_2471)">
<path d="M49.0888 -0.000131001C49.3933 0.0342406 49.6998 0.0552472 50.0005 0.102986C50.757 0.223286 51.5135 0.355044 52.27 0.484893C52.2853 0.484893 52.2987 0.500167 52.3275 0.515443L51.774 6.02445C51.5001 5.95762 51.2434 5.88506 50.983 5.8335C50.1757 5.64453 49.3321 5.67886 48.543 5.9328C47.4321 6.3147 46.7752 7.07852 46.5971 8.24715C46.5339 8.65388 46.4592 9.06062 46.3864 9.48835H50.4888C50.1881 11.2318 49.8894 12.9523 49.5906 14.6842H45.4958C44.5165 20.3122 43.5378 25.9371 42.5597 31.5588H35.4216C36.3984 25.9358 37.3764 20.3122 38.3558 14.688H35.3086C35.6093 12.9446 35.9042 11.2222 36.203 9.48072H37.4575C37.988 9.48072 38.5166 9.46735 39.0452 9.48072C39.1889 9.48072 39.2368 9.44252 39.2597 9.28976C39.4072 8.22424 39.5087 7.15108 39.8343 6.11611C40.5123 3.95452 41.7783 2.25503 43.7759 1.13413C44.7836 0.5814 45.8894 0.229243 47.0318 0.0972572C47.3306 0.0571569 47.6275 0.0285123 47.9262 -0.00585938L49.0888 -0.000131001Z" fill="#FA6400"/>
<path d="M76.8881 17.8806C76.9551 17.3994 77.0375 16.9144 77.0796 16.4256C77.1112 16.1336 77.1112 15.8391 77.0796 15.5472C77.0653 15.245 76.9428 14.9579 76.7345 14.7379C76.5262 14.5179 76.2457 14.3796 75.9439 14.348C75.1931 14.2181 74.4883 14.3308 73.9214 14.8922C73.5743 15.2707 73.3367 15.736 73.2338 16.2384C73.1974 16.374 73.2051 16.5669 73.117 16.6318C73.0289 16.6967 72.8355 16.6624 72.688 16.6643L66.2853 16.6795H66.067C66.0547 16.1761 66.1062 15.6731 66.2202 15.1825C66.6205 13.3837 67.6796 12.0432 69.1582 10.9949C70.289 10.2262 71.5617 9.6894 72.9025 9.41566C74.6115 9.00432 76.389 8.962 78.1158 9.29155C79.3919 9.51402 80.5985 10.0299 81.6398 10.7982C82.3391 11.3277 82.9257 11.9905 83.3656 12.7481C83.8056 13.5057 84.09 14.3429 84.2024 15.2111C84.3442 16.1506 84.2331 17.0748 84.0818 18.0009C83.8271 19.5706 83.5876 21.144 83.3406 22.7156C83.1088 24.1993 82.8982 25.6849 82.6415 27.1629C82.3584 28.6077 82.5227 30.1041 83.1127 31.4536C83.1239 31.4797 83.1335 31.5065 83.1414 31.5338C83.1426 31.5523 83.1426 31.5708 83.1414 31.5892H82.9633L76.1507 31.5777C76.0263 31.5777 75.9592 31.5453 75.9382 31.4231C75.8347 30.9648 75.7275 30.5103 75.6183 30.0482L75.2851 30.3346C73.7739 31.614 72.0291 32.12 70.0603 31.9596C68.6132 31.8683 67.2339 31.3153 66.1263 30.3824C64.9063 29.3474 64.1115 28.0546 63.9698 26.4583C63.7093 23.5329 64.7071 21.1746 67.2908 19.6011C68.565 18.8555 69.9694 18.3572 71.4297 18.1327C72.9985 17.8837 74.5892 17.7992 76.1756 17.8806C76.394 17.8883 76.6219 17.8806 76.8881 17.8806ZM76.2925 22.0071C75.67 22.0071 75.0763 21.9632 74.4902 22.0167C73.0193 22.1484 71.3205 23.128 71.1271 25.1942C71.06 25.9121 71.445 26.6359 72.3279 26.6836C72.6627 26.7009 72.9984 26.6778 73.3277 26.6149C74.3006 26.4239 75.038 25.851 75.6643 25.1254C75.6994 25.0748 75.7217 25.0165 75.7294 24.9555C75.8539 24.3272 75.9745 23.7009 76.0952 23.0727C76.1622 22.7232 76.2178 22.3738 76.2925 22.0071Z" fill="#FA6400"/>
<path d="M21.8014 9.49311C21.6865 10.1385 21.5735 10.7782 21.4547 11.4561C21.6463 11.29 21.7976 11.1449 21.9604 11.0055C23.0664 10.0215 24.4374 9.38215 25.9039 9.16658C27.0827 8.9712 28.2917 9.06826 29.4241 9.44919C30.9237 9.98195 31.9139 11.0379 32.5306 12.4815C32.9413 13.523 33.1543 14.6316 33.1588 15.7507C33.1806 16.8162 33.0907 17.8812 32.8907 18.9281C32.5976 20.5837 32.3276 22.2431 32.0499 23.9025C31.7575 25.6325 31.4664 27.3638 31.1765 29.0964C31.0463 29.8717 30.9141 30.6469 30.7935 31.4241C30.7743 31.5387 30.7399 31.5845 30.6134 31.5845C28.3305 31.5845 26.0481 31.5845 23.7664 31.5845C23.7224 31.5845 23.6783 31.5845 23.6209 31.5731L23.8756 30.0588C24.1437 28.479 24.4106 26.8992 24.6762 25.3193C24.9801 23.5206 25.284 21.7224 25.5878 19.9249C25.7277 19.0981 25.877 18.2732 25.9824 17.4425C26.0313 17.043 26.0313 16.639 25.9824 16.2395C25.8809 15.3974 25.358 14.9353 24.5057 14.8341C23.1651 14.6718 22.0983 15.1873 21.1962 16.1268C21.147 16.188 21.1152 16.2612 21.1042 16.3388C20.7493 18.3171 20.3982 20.296 20.0509 22.2755C19.7036 24.2551 19.3582 26.2181 19.0147 28.1646C18.8232 29.2625 18.6317 30.3605 18.4401 31.4604C18.4172 31.6017 18.3329 31.5922 18.2333 31.5922H11.2656L15.121 9.49311H21.8014Z" fill="#FA6400"/>
<path d="M106.67 22.925C106.76 24.4431 107.568 26.0528 109.692 26.2304C111.617 26.3927 113.235 25.7129 114.637 24.4431C114.727 24.3629 114.813 24.2827 114.899 24.1987C114.986 24.1146 115.064 24.0268 115.168 23.9199C116.196 25.2718 117.213 26.6123 118.251 27.9795C118.002 28.2812 117.763 28.5963 117.498 28.8885C116.236 30.2824 114.626 31.0844 112.831 31.5504C110.684 32.1099 108.522 32.1805 106.377 31.5618C103.762 30.8076 101.78 29.2608 100.562 26.8014C99.6994 25.051 99.3603 23.0902 99.5851 21.1529C99.6856 20.013 99.8829 18.8836 100.175 17.7769C100.665 15.918 101.579 14.1972 102.847 12.7491C104.54 10.8395 106.622 9.62317 109.167 9.23171C110.774 8.98347 112.383 8.99302 113.955 9.46277C116.623 10.259 118.395 12.0158 119.333 14.609C119.897 16.16 120.108 17.8168 119.95 19.4592C119.858 20.4292 119.697 21.3916 119.567 22.3579C119.542 22.5488 119.513 22.7264 119.486 22.9307L106.67 22.925ZM113.082 18.1893C113.245 17.4924 113.312 16.8049 113.063 16.1156C112.974 15.8425 112.819 15.5954 112.612 15.3957C112.405 15.196 112.152 15.0498 111.875 14.9699C111.278 14.7703 110.634 14.7496 110.025 14.9105C109.416 15.0713 108.867 15.4066 108.447 15.875C107.851 16.5319 107.476 17.3186 107.152 18.1321C107.149 18.1529 107.149 18.1742 107.152 18.1951L113.082 18.1893Z" fill="#FA6400"/>
<path d="M139.479 31.5696H139.287C137.034 31.5696 134.779 31.5696 132.524 31.5696C132.471 31.5793 132.415 31.5677 132.37 31.5374C132.325 31.5072 132.293 31.4605 132.281 31.4073C131.621 29.5512 130.956 27.6971 130.285 25.8448L130.186 25.5794C130.125 25.6691 130.081 25.7303 130.038 25.7952C128.79 27.6678 127.542 29.5417 126.296 31.4169C126.268 31.4671 126.226 31.5083 126.175 31.5354C126.124 31.5624 126.066 31.5743 126.009 31.5696C123.52 31.5696 121.03 31.5696 118.539 31.5696H118.352C118.394 31.5047 118.421 31.4608 118.451 31.4169C121.038 27.6283 123.626 23.8404 126.216 20.0532C126.248 20.0123 126.269 19.9632 126.276 19.9113C126.282 19.8594 126.274 19.8067 126.252 19.7591C125.006 16.406 123.762 13.0516 122.521 9.69588C122.498 9.63478 122.479 9.56985 122.454 9.50493H129.652C130.268 11.3438 130.885 13.1827 131.513 15.0521C131.705 14.7638 131.885 14.5041 132.061 14.2406C133.091 12.7129 134.121 11.1853 135.15 9.65769C135.18 9.60528 135.224 9.56246 135.277 9.53436C135.33 9.50625 135.391 9.49404 135.451 9.4992C137.887 9.4992 140.323 9.4992 142.759 9.4992H143.003C142.951 9.59277 142.92 9.66342 142.878 9.72453L139.431 14.7676C138.125 16.6771 136.82 18.5867 135.518 20.4962C135.499 20.5311 135.488 20.5694 135.484 20.6088C135.481 20.6482 135.486 20.6879 135.499 20.7254C136.625 23.7959 137.754 26.8664 138.885 29.937L139.414 31.371C139.435 31.4302 139.454 31.4951 139.479 31.5696Z" fill="#FA6400"/>
<path d="M88.4743 14.6948H85.793C86.0917 12.9533 86.3867 11.229 86.6836 9.49323H86.8751C87.6412 9.49323 88.4226 9.49323 89.1964 9.49323C89.3285 9.49323 89.3668 9.45313 89.3879 9.3271C89.679 7.64798 89.9746 5.9695 90.2747 4.29165C90.2747 4.24773 90.2957 4.20381 90.311 4.14844H97.4243C97.1082 5.93194 96.7961 7.70208 96.48 9.49514H99.9275C99.8432 9.98398 99.7628 10.4499 99.6804 10.9273C99.4678 12.1322 99.2514 13.3352 99.0446 14.5401C99.0216 14.6738 98.9699 14.7005 98.853 14.7005C97.8226 14.7005 96.7929 14.7005 95.7637 14.7005H95.5722C95.4401 15.4643 95.3117 16.2129 95.1892 16.9595C94.9095 18.6144 94.6299 20.2694 94.3503 21.9243C94.199 22.8218 94.0458 23.7212 93.9136 24.6225C93.8881 24.8819 93.8932 25.1434 93.9289 25.4016C93.942 25.5703 94.0129 25.7294 94.1298 25.8521C94.2466 25.9749 94.4022 26.0538 94.5705 26.0756C95.0184 26.1573 95.4759 26.1734 95.9285 26.1234C96.3364 26.1005 96.7424 26.0604 97.1638 26.026C97.1255 26.427 97.0891 26.8204 97.0508 27.2137L96.7578 30.2079C96.7233 30.563 96.6831 30.9182 96.6582 31.2734C96.6582 31.3937 96.5758 31.4071 96.4954 31.4319C95.3265 31.7994 94.1045 31.9704 92.8794 31.9379C91.9619 31.9438 91.0505 31.7893 90.1865 31.4815C88.3958 30.7979 87.329 29.4899 86.9057 27.6491C86.6801 26.5926 86.6697 25.5017 86.8751 24.4411C87.1451 22.8848 87.3941 21.3247 87.6508 19.7665C87.9202 18.1307 88.1889 16.4936 88.4571 14.8552C88.4571 14.8094 88.4609 14.7674 88.4743 14.6948Z" fill="#FA6400"/>
<path d="M7.38711 31.5647H0C1.71861 21.7229 3.43468 11.8869 5.14818 2.05664H12.5123C10.8039 11.8946 9.09551 21.7306 7.38711 31.5647Z" fill="#FA6400"/>
<path d="M52.4455 9.48927H59.1278C59.0167 10.1232 58.9037 10.7629 58.785 11.4408C58.9516 11.2499 59.0895 11.099 59.2331 10.9482C60.0873 10.0526 61.0756 9.38806 62.3109 9.136C63.0808 9.00448 63.8683 9.01548 64.6341 9.16847C64.9674 9.22385 65.2987 9.30404 65.6435 9.3747C65.3351 11.6413 65.0306 13.8774 64.7222 16.1402L64.2338 16.0753C63.2226 15.9492 62.2113 15.8213 61.1924 15.9893C60.0409 16.1549 58.9983 16.7585 58.2832 17.6735C58.2285 17.7442 58.1911 17.8266 58.174 17.9141C57.7565 20.226 57.3415 22.5384 56.9291 24.8515L55.8489 30.9028C55.8087 31.1262 55.7665 31.3458 55.7263 31.5711H48.6035C49.8829 24.2054 51.1636 16.8448 52.4455 9.48927Z" fill="#FA6400"/>
</g>
<defs>
<clipPath id="clip0_243_2471">
<rect width="143" height="32" fill="white"/>
</clipPath>
</defs>
</svg>
